<svg width="280" height="75" viewBox="0 0 280 75" fill="none" xmlns="http://www.w3.org/2000/svg">
<mask id="mask0_26_2427" style="mask-type:alpha" maskUnits="userSpaceOnUse" x="0" y="0" width="280" height="75">
<path fill-rule="evenodd" clip-rule="evenodd" d="M15.9095 20.5516H25.011L29.5471 12.2818C29.9308 11.568 30.5063 10.9706 31.2112 10.5537C31.9162 10.1369 32.7239 9.91665 33.5473 9.91665C34.3707 9.91665 35.1785 10.1369 35.8835 10.5537C36.5884 10.9706 37.1638 11.568 37.5476 12.2818L41.9516 20.5516H51.0531L44.5939 8.58551C43.523 6.60845 41.9228 4.95441 39.965 3.80089C38.0072 2.64737 35.7658 2.0379 33.4813 2.0379C31.1967 2.0379 28.9553 2.64737 26.9975 3.80089C25.0398 4.95441 23.4396 6.60845 22.3686 8.58551L15.9095 20.5516ZM106.131 53.2714H93.8736C92.8934 53.2716 91.9522 52.8951 91.2523 52.2228C90.5523 51.5505 90.1495 50.636 90.1303 49.6758V33.6971C90.1303 32.7244 90.5247 31.7915 91.2267 31.1037C91.9287 30.416 92.8808 30.0296 93.8736 30.0296H106.131V21.8316H93.8736C92.8808 21.8316 91.9287 21.4452 91.2267 20.7575C90.5247 20.0697 90.1303 19.1368 90.1303 18.1641V10.0669H80.7792V18.1641C80.7792 18.647 80.6819 19.1251 80.4928 19.571C80.3038 20.0169 80.0267 20.4218 79.6776 20.7626C79.3284 21.1033 78.914 21.3731 78.4582 21.5566C78.0023 21.7401 77.514 21.8335 77.0211 21.8316H71.4281V30.0296H77.0505C78.0433 30.0296 78.9954 30.416 79.6975 31.1037C80.3995 31.7915 80.7939 32.7244 80.7939 33.6971V52.2646C80.8248 54.7151 81.8411 57.0546 83.6221 58.7753C85.4032 60.496 87.8051 61.4589 90.3064 61.4549H106.131V53.2714ZM150.127 10.0669H159.522V61.455H150.127V10.0669ZM119.094 43.923H146.149V39.5076C146.149 27.6853 139.675 21.2276 128.107 21.2276C115.35 21.2276 109.258 28.1743 109.258 39.2631V43.923C109.258 55.1412 115.35 62.0878 128.107 62.0878C139.249 62.0878 145.092 56.6657 145.84 48.5541V47.0439H136.313L136.166 48.928C136.134 49.3533 136.051 49.7734 135.917 50.1793C135.154 52.4373 132.761 54.2207 128.195 54.2207C121.487 54.2207 118.991 50.4525 118.991 44.8434V44.0524C118.99 44.0225 119 43.9933 119.019 43.9697C119.038 43.9461 119.064 43.9296 119.094 43.923ZM127.902 29.0948C134.038 29.0948 136.504 32.2157 136.489 37.1489C136.486 37.1783 136.473 37.2058 136.451 37.2267C136.43 37.2477 136.402 37.2608 136.372 37.2639H119.182C119.165 37.2641 119.149 37.2607 119.133 37.254C119.118 37.2474 119.104 37.2376 119.093 37.2253C119.082 37.2131 119.074 37.1986 119.069 37.183C119.066 37.1753 119.065 37.1674 119.064 37.1595C119.063 37.1512 119.063 37.1428 119.064 37.1345C119.475 32.3308 122.03 29.0948 127.902 29.0948ZM237.678 64.0581C237.678 66.493 236.691 68.8284 234.935 70.5515C233.179 72.2746 230.797 73.2446 228.312 73.2484H203.15C203.127 73.2484 203.105 73.2393 203.088 73.2231C203.072 73.2069 203.062 73.185 203.062 73.1621V64.9642C203.062 64.9413 203.072 64.9193 203.088 64.9032C203.105 64.887 203.127 64.8779 203.15 64.8779H224.539C225.033 64.8779 225.522 64.7821 225.978 64.596C226.434 64.4099 226.848 64.1372 227.196 63.7936C227.544 63.4499 227.82 63.0422 228.006 62.5939C228.192 62.1457 228.286 61.6657 228.282 61.1816V55.7451C228.282 55.7364 228.281 55.7279 228.278 55.72C228.277 55.7176 228.276 55.7152 228.275 55.7129L228.273 55.7102L228.27 55.705L228.269 55.7031L228.265 55.6991C228.264 55.6974 228.263 55.6958 228.261 55.6943C228.247 55.6808 228.229 55.6732 228.209 55.6732C228.19 55.6732 228.171 55.6808 228.157 55.6943C228.146 55.7056 228.138 55.7202 228.136 55.7359C228.136 55.7389 228.136 55.742 228.136 55.7451C226.874 57.7445 225.097 59.3832 222.984 60.4966C220.871 61.6099 218.496 62.1587 216.098 62.0877C207.628 62.0877 202.974 56.0615 202.974 46.8568V21.9179H203.048H212.223H212.296V45.7925C212.296 51.2722 214.66 54.2637 219.944 54.2637C226.007 54.2637 227.886 50.3805 228.253 47.0726V46.5404V21.9179C228.262 21.913 228.271 21.9096 228.281 21.9078C228.286 21.9068 228.292 21.9063 228.297 21.9063C228.313 21.9063 228.328 21.9103 228.341 21.9179H237.56C237.574 21.9103 237.589 21.9063 237.604 21.9063C237.62 21.9063 237.635 21.9103 237.648 21.9179L237.678 64.0581ZM173.277 21.8458H163.955V61.4548H173.277V37.8102C173.277 34.2722 174.642 29.037 181.674 29.037C186.959 29.037 189.322 32.0142 189.322 37.5082V61.4548H198.659V36.4583C198.659 27.268 193.99 21.2274 185.535 21.2274C183.118 21.1661 180.727 21.726 178.599 22.8514C176.472 23.9768 174.683 25.6284 173.409 27.6419C173.409 27.661 173.401 27.6793 173.388 27.6928C173.374 27.7063 173.355 27.7138 173.336 27.7138C173.316 27.7138 173.298 27.7063 173.284 27.6928C173.27 27.6793 173.262 27.661 173.262 27.6419L173.277 21.8458ZM254.891 41.0319C254.891 40.9861 254.878 40.9413 254.853 40.9025L241.773 21.8315H253.092L260.843 33.8551C260.854 33.87 260.868 33.8821 260.884 33.8904C260.901 33.8987 260.919 33.9031 260.938 33.9031C260.957 33.9031 260.975 33.8987 260.992 33.8904C261.008 33.8821 261.023 33.87 261.034 33.8551L268.829 21.8459H279.486L266.348 40.9456C266.326 40.9828 266.314 41.0249 266.314 41.0678C266.314 41.1108 266.326 41.1529 266.348 41.1901L280 61.4548H269.166L260.432 48.2518C260.421 48.2338 260.407 48.2188 260.388 48.2084C260.37 48.198 260.35 48.1925 260.329 48.1925C260.308 48.1925 260.287 48.198 260.269 48.2084C260.251 48.2188 260.236 48.2338 260.226 48.2518L251.418 61.4548H241.142L254.853 41.1613C254.878 41.1225 254.891 41.0777 254.891 41.0319ZM66.7015 50.1217C67.2474 52.3408 66.928 54.6795 65.806 56.68C64.9355 58.223 63.6035 59.4678 61.9893 60.2468C60.8454 60.863 59.5777 61.2263 58.2753 61.3111H38.7657C40.1726 60.4776 41.3549 59.3255 42.2132 57.9516C43.0714 56.5776 43.5807 55.022 43.6981 53.4152H54.3117C54.8683 53.4147 55.4153 53.2727 55.8991 53.0029C56.3828 52.7332 56.7868 52.345 57.0715 51.8763C57.3637 51.3747 57.5174 50.8071 57.5174 50.2295C57.5174 49.652 57.3637 49.0844 57.0715 48.5828L47.7645 31.324H56.866L65.762 47.7917C65.8713 47.9678 65.9693 48.1504 66.0556 48.3383C66.3287 48.9111 66.545 49.5083 66.7015 50.1217ZM24.6747 25.357C23.8337 26.7319 23.3446 28.2857 23.2492 29.8859H10.463V21.99H28.0789C26.6836 22.8269 25.5157 23.9821 24.6747 25.357ZM24.7022 30.4612V52.0346H28.8419C29.7052 52.0252 30.5416 51.7388 31.223 51.2193C31.9044 50.6998 32.3932 49.9758 32.6146 49.1582C32.7037 48.8445 32.7482 48.5202 32.7467 48.1946V35.2505C32.7506 33.8453 33.32 32.4982 34.3315 31.5019C35.3429 30.5056 36.7147 29.9404 38.1489 29.929H56.5722V21.99H33.3339C31.0433 21.9938 28.8478 22.888 27.2295 24.4762C25.6111 26.0644 24.7022 28.2169 24.7022 30.4612ZM0.260214 50.1217C0.416698 49.5084 0.632997 48.9111 0.906129 48.3383C0.958133 48.2279 1.01525 48.1225 1.07447 48.0133C1.11555 47.9375 1.15764 47.8599 1.19973 47.7774L10.0957 31.3096H19.2707L9.96362 48.5684C9.67152 49.0727 9.51797 49.6426 9.51797 50.2224C9.51797 50.8022 9.67152 51.3721 9.96362 51.8764C10.2483 52.345 10.6523 52.7332 11.1361 53.003C11.6198 53.2727 12.1668 53.4148 12.7234 53.4153H28.7979C30.232 53.4153 31.6076 52.8581 32.623 51.866C33.6385 50.8738 34.2109 49.5276 34.2148 48.1226V35.1785C34.2221 34.167 34.6304 33.1979 35.3536 32.4759C36.0768 31.754 37.0581 31.3357 38.0903 31.3096H42.2887V52.6818C42.2887 54.9704 41.3607 57.1654 39.7089 58.7837C38.0571 60.402 35.8168 61.3112 33.4808 61.3112H8.68647C7.384 61.2263 6.11631 60.863 4.97246 60.2469C3.3603 59.4716 2.02854 58.2321 1.15569 56.6945C0.0341018 54.6886 -0.285121 52.3455 0.260214 50.1217Z" fill="black"/>
</mask>
<g mask="url(#mask0_26_2427)">
<rect x="-13.6782" y="-7.9677" width="304.943" height="80.4598" fill="black"/>
</g>
</svg>
