<svg width="16" height="16" viewBox="0 0 16 16" fill="none" xmlns="http://www.w3.org/2000/svg">
<path fill-rule="evenodd" clip-rule="evenodd" d="M1 3.51282C1 3.1163 1.32144 2.79487 1.71795 2.79487H14.2821C14.6786 2.79487 15 3.1163 15 3.51282C15 3.90933 14.6786 4.23076 14.2821 4.23076H1.71795C1.32144 4.23076 1 3.90933 1 3.51282Z" fill="#1D1D1D"/>
<path fill-rule="evenodd" clip-rule="evenodd" d="M5.5116 1.47314C5.81454 1.17019 6.22542 1 6.65385 1H9.34616C9.77458 1 10.1855 1.17019 10.4884 1.47314C10.7914 1.77608 10.9615 2.18696 10.9615 2.61538V3.51282C10.9615 3.90933 10.6401 4.23077 10.2436 4.23077H5.75641C5.3599 4.23077 5.03847 3.90933 5.03847 3.51282V2.61538C5.03847 2.18696 5.20866 1.77608 5.5116 1.47314ZM6.65385 2.4359C6.60625 2.4359 6.56059 2.45481 6.52693 2.48847C6.49327 2.52213 6.47436 2.56778 6.47436 2.61538V2.79487H9.52565V2.61538C9.52565 2.56778 9.50673 2.52213 9.47307 2.48847C9.43941 2.45481 9.39376 2.4359 9.34616 2.4359H6.65385Z" fill="#1D1D1D"/>
<path fill-rule="evenodd" clip-rule="evenodd" d="M6.65382 5.9359C7.05033 5.9359 7.37177 6.25734 7.37177 6.65385V11.141C7.37177 11.5375 7.05033 11.859 6.65382 11.859C6.2573 11.859 5.93587 11.5375 5.93587 11.141V6.65385C5.93587 6.25734 6.2573 5.9359 6.65382 5.9359Z" fill="#1D1D1D"/>
<path fill-rule="evenodd" clip-rule="evenodd" d="M9.34615 5.9359C9.74266 5.9359 10.0641 6.25734 10.0641 6.65385V11.141C10.0641 11.5375 9.74266 11.859 9.34615 11.859C8.94964 11.859 8.6282 11.5375 8.6282 11.141V6.65385C8.6282 6.25734 8.94964 5.9359 9.34615 5.9359Z" fill="#1D1D1D"/>
<path d="M3.06409 2.79487C2.8633 2.79487 2.6717 2.87894 2.53575 3.0267L3.90107 4.91067L3.84438 4.23076H12.1556L11.3918 13.3992C11.3881 13.4441 11.3676 13.4862 11.3344 13.5167C11.3013 13.5472 11.2579 13.5641 11.2129 13.5641H4.78776C4.74272 13.5641 4.69927 13.5472 4.66613 13.5167C4.63299 13.4862 4.61253 13.4443 4.60881 13.3994L3.90107 4.91067L2.53575 3.0267L2.34862 3.57247L3.17782 13.5181C3.2114 13.922 3.39555 14.2988 3.69372 14.5732C3.99194 14.8477 4.38245 15 4.78776 15H11.2128C11.6181 15 12.0086 14.8477 12.3068 14.5732C12.605 14.2987 12.7892 13.922 12.8227 13.5181L13.6514 3.57242C13.668 3.37234 13.6001 3.17442 13.4642 3.02668C13.3283 2.87894 13.1367 2.79487 12.9359 2.79487H3.06409Z" fill="#1D1D1D"/>
</svg>