<svg width="16" height="16" viewBox="0 0 16 16" fill="none" xmlns="http://www.w3.org/2000/svg">
<path fill-rule="evenodd" clip-rule="evenodd" d="M12.2379 1.00006C12.6011 0.997604 12.9612 1.06714 13.2974 1.20467C13.6336 1.34219 13.9392 1.54497 14.1966 1.80129L14.1987 1.80337C14.455 2.06075 14.6578 2.36637 14.7953 2.70257C14.9329 3.03876 15.0024 3.39888 14.9999 3.76211C14.9975 4.12534 14.9231 4.48449 14.781 4.81879C14.6395 5.15173 14.4337 5.45346 14.1754 5.70671L6.08136 13.8008C5.9904 13.8917 5.87667 13.9566 5.75206 13.9886L1.89633 14.9775C1.65054 15.0405 1.38972 14.9691 1.2103 14.7897C1.03087 14.6103 0.959484 14.3495 1.02253 14.1037L2.01145 10.2479C2.04341 10.1233 2.10826 10.0096 2.19922 9.91864L10.2933 1.82458C10.5465 1.56628 10.8483 1.36048 11.1812 1.219C11.5155 1.07693 11.8747 1.00252 12.2379 1.00006ZM12.7538 2.53367C12.5932 2.46797 12.4211 2.43475 12.2476 2.43593C12.0741 2.4371 11.9025 2.47265 11.7428 2.54052C11.5831 2.60839 11.4384 2.70723 11.3171 2.83134L11.3113 2.83724L3.3535 10.795L2.71483 13.2852L5.20498 12.6465L13.1686 4.68286C13.2927 4.56157 13.3916 4.41692 13.4595 4.25721C13.5273 4.0975 13.5629 3.92592 13.5641 3.75239C13.5652 3.57886 13.532 3.40682 13.4663 3.2462C13.4008 3.08604 13.3043 2.94041 13.1823 2.81767C13.0596 2.69571 12.914 2.59919 12.7538 2.53367Z" fill="#1D1D1D"/>
<path fill-rule="evenodd" clip-rule="evenodd" d="M9.28721 3.00515C9.56759 2.72478 10.0222 2.72478 10.3025 3.00515L12.9948 5.69746C13.2752 5.97783 13.2752 6.43241 12.9948 6.71279C12.7145 6.99316 12.2599 6.99316 11.9795 6.71279L9.28721 4.02048C9.00684 3.74011 9.00684 3.28553 9.28721 3.00515Z" fill="#1D1D1D"/>
<path fill-rule="evenodd" clip-rule="evenodd" d="M2.19922 9.91864C2.47932 9.63799 2.93337 9.63804 3.21402 9.91814L6.08363 12.7822C6.36428 13.0623 6.36472 13.5168 6.08462 13.7975C5.80451 14.0781 5.34993 14.0786 5.06928 13.7985L2.19968 10.9345C1.91903 10.6544 1.91912 10.1993 2.19922 9.91864Z" fill="#1D1D1D"/>
</svg>