<svg width="60" height="60" viewBox="0 0 60 60" fill="none" xmlns="http://www.w3.org/2000/svg">
<g filter="url(#filter0_d_50_7582)">
<circle cx="30" cy="29" r="26" fill="#00E3AA"/>
</g>
<path d="M33.2407 40.0672L33.2538 40.0764C34.387 40.798 35.7325 41.1114 37.0679 40.9647C38.4034 40.818 39.6488 40.2201 40.5984 39.2697L41.4233 38.4447C41.6062 38.262 41.7512 38.045 41.8501 37.8062C41.9491 37.5674 42 37.3115 42 37.053C42 36.7945 41.9491 36.5386 41.8501 36.2998C41.7512 36.061 41.6062 35.844 41.4233 35.6613L37.9439 32.1841C37.7612 32.0013 37.5442 31.8562 37.3055 31.7573C37.0667 31.6583 36.8108 31.6074 36.5523 31.6074C36.2939 31.6074 36.0379 31.6583 35.7992 31.7573C35.5604 31.8562 35.3435 32.0013 35.1608 32.1841C34.7919 32.5529 34.2916 32.7602 33.7699 32.7602C33.2482 32.7602 32.7479 32.5529 32.379 32.1841L26.8155 26.6187C26.4467 26.2497 26.2395 25.7494 26.2395 25.2277C26.2395 24.706 26.4467 24.2056 26.8155 23.8366C26.9983 23.6539 27.1433 23.437 27.2423 23.1982C27.3412 22.9594 27.3922 22.7034 27.3922 22.445C27.3922 22.1865 27.3412 21.9305 27.2423 21.6917C27.1433 21.453 26.9983 21.236 26.8155 21.0533L23.3373 17.5761C22.9684 17.2072 22.4681 17 21.9464 17C21.4248 17 20.9245 17.2072 20.5556 17.5761L19.7293 18.4011C18.7792 19.351 18.1816 20.5966 18.0352 21.9321C17.8887 23.2677 18.2023 24.6132 18.924 25.7464L18.9319 25.7595C22.7434 31.3994 27.6007 36.2563 33.2407 40.0672Z" fill="#1D1D1D"/>
<defs>
<filter id="filter0_d_50_7582" x="0" y="0" width="60" height="60" filterUnits="userSpaceOnUse" color-interpolation-filters="sRGB">
<feFlood flood-opacity="0" result="BackgroundImageFix"/>
<feColorMatrix in="SourceAlpha" type="matrix" values="0 0 0 0 0 0 0 0 0 0 0 0 0 0 0 0 0 0 127 0" result="hardAlpha"/>
<feOffset dy="1"/>
<feGaussianBlur stdDeviation="2"/>
<feComposite in2="hardAlpha" operator="out"/>
<feColorMatrix type="matrix" values="0 0 0 0 0 0 0 0 0 0 0 0 0 0 0 0 0 0 0.12 0"/>
<feBlend mode="normal" in2="BackgroundImageFix" result="effect1_dropShadow_50_7582"/>
<feBlend mode="normal" in="SourceGraphic" in2="effect1_dropShadow_50_7582" result="shape"/>
</filter>
</defs>
</svg>
