<svg width="60" height="60" viewBox="0 0 60 60" fill="none" xmlns="http://www.w3.org/2000/svg">
<g filter="url(#filter0_d_52_7877)">
<circle cx="30" cy="29" r="26" fill="#F5F3E4"/>
</g>
<path fill-rule="evenodd" clip-rule="evenodd" d="M29.5 21.8076C29.5 20.152 27.6034 19.2133 26.287 20.2174L20.5544 24.5902C20.2059 24.8561 19.7798 25 19.3415 25H19C17.8954 25.0001 17 25.8955 17 27V31C17 32.1046 17.8954 33.0001 19 33L19.3768 33C19.7934 33 20.1995 33.1301 20.5385 33.372L26.3383 37.5105C27.6621 38.4552 29.5 37.5088 29.5 35.8825V21.8076Z" fill="#1D1D1D"/>
<path d="M32.6187 24.519C32.1479 23.8272 32.139 22.8723 32.7376 22.2876C33.3264 21.7126 34.2782 21.7125 34.7749 22.3687C35.3109 23.077 35.7609 23.8541 36.125 24.7C36.7083 26.0333 37 27.4667 37 29C37 30.5333 36.7083 31.9583 36.125 33.275C35.7474 34.1381 35.2824 34.928 34.7302 35.6444C34.2304 36.2928 33.2833 36.2833 32.7044 35.7044C32.1221 35.1221 32.1364 34.1843 32.6022 33.5052C32.9021 33.0679 33.1597 32.5995 33.375 32.1C33.7917 31.1333 34 30.1 34 29C34 27.9 33.7917 26.8667 33.375 25.9C33.1636 25.4096 32.9115 24.9493 32.6187 24.519ZM36.8984 20.209C36.3801 19.5678 36.3726 18.6274 36.9556 18.0444C37.5342 17.4658 38.4768 17.4564 39.0089 18.078C40.1024 19.3555 40.9911 20.7878 41.675 22.375C42.5583 24.425 43 26.6333 43 29C43 31.3667 42.5583 33.575 41.675 35.625C40.9911 37.2122 40.1024 38.6445 39.0089 39.922C38.4768 40.5436 37.5342 40.5342 36.9556 39.9556C36.3726 39.3726 36.3801 38.4322 36.8975 37.7902C37.7136 36.7777 38.3811 35.656 38.9 34.425C39.6333 32.7417 40 30.9333 40 29C40 27.0667 39.6333 25.25 38.9 23.55C38.3813 22.3316 37.7141 21.2179 36.8984 20.209Z" fill="#1D1D1D"/>
<defs>
<filter id="filter0_d_52_7877" x="0" y="0" width="60" height="60" filterUnits="userSpaceOnUse" color-interpolation-filters="sRGB">
<feFlood flood-opacity="0" result="BackgroundImageFix"/>
<feColorMatrix in="SourceAlpha" type="matrix" values="0 0 0 0 0 0 0 0 0 0 0 0 0 0 0 0 0 0 127 0" result="hardAlpha"/>
<feOffset dy="1"/>
<feGaussianBlur stdDeviation="2"/>
<feComposite in2="hardAlpha" operator="out"/>
<feColorMatrix type="matrix" values="0 0 0 0 0 0 0 0 0 0 0 0 0 0 0 0 0 0 0.12 0"/>
<feBlend mode="normal" in2="BackgroundImageFix" result="effect1_dropShadow_52_7877"/>
<feBlend mode="normal" in="SourceGraphic" in2="effect1_dropShadow_52_7877" result="shape"/>
</filter>
</defs>
</svg>
