<svg width="60" height="60" viewBox="0 0 60 60" fill="none" xmlns="http://www.w3.org/2000/svg">
<g filter="url(#filter0_d_52_7872)">
<circle cx="30" cy="29" r="26" fill="#F5F3E4"/>
</g>
<path d="M37.6605 33.24C37.3746 33.7987 36.6322 33.8664 36.1895 33.4215L35.7805 33.0105C35.4563 32.6847 35.4045 32.1834 35.5915 31.7636C35.71 31.4975 35.808 31.2255 35.8855 30.9476C35.9438 30.7381 35.9905 30.5254 36.0255 30.3092C36.1139 29.764 36.5521 29.3134 37.1044 29.3134H37.6063C38.1586 29.3134 38.6128 29.7625 38.5516 30.3114C38.4886 30.8755 38.3713 31.4227 38.1998 31.9532C38.0534 32.3943 37.8737 32.8233 37.6605 33.24ZM33.5086 29.9419C33.4505 30.2048 33.128 30.2822 32.9381 30.0914L31.1005 28.2449C27.8225 19.7632 31.1005 19.9434 31.1005 28.2449L26.3878 23.5093C26.2013 23.3219 26.0966 23.0683 26.0966 22.8039V21.7711C26.0966 20.7236 26.4615 19.8332 27.1912 19.0999C27.9209 18.3666 28.807 18 29.8495 18C30.892 18 31.7781 18.3666 32.5078 19.0999C33.2376 19.8332 33.6024 20.7236 33.6024 21.7711V29.3134C33.6024 29.5439 33.5712 29.7534 33.5086 29.9419ZM29.5985 41.8839C29.0463 41.8839 28.5985 41.4361 28.5985 40.8839V38.8923C28.5985 38.3918 28.2266 37.9747 27.739 37.862C25.9518 37.449 24.4453 36.527 23.2194 35.0958C22.0202 33.696 21.3282 32.1013 21.1433 30.3117C21.0865 29.7624 21.5404 29.3134 22.0927 29.3134H22.5946C23.1469 29.3134 23.5857 29.7636 23.6636 30.3103C23.8514 31.6277 24.4226 32.783 25.3773 33.7759C26.5866 34.9911 28.0773 35.5986 29.8495 35.5986C30.5584 35.5986 31.2256 35.4939 31.8511 35.2844C32.21 35.1564 32.5497 35.0025 32.8701 34.8229C33.3078 34.5774 33.8671 34.6075 34.2211 34.9633L34.5974 35.3414C35.0177 35.7637 34.979 36.4616 34.4725 36.7752C34.1265 36.9895 33.7635 37.184 33.3835 37.3585C32.9318 37.5721 32.4589 37.7389 31.9649 37.8589C31.4762 37.9777 31.1005 38.395 31.1005 38.8979V40.8839C31.1005 41.4361 30.6528 41.8839 30.1005 41.8839H29.5985ZM40.3159 43.1829C39.925 43.5757 39.2892 43.5757 38.8983 43.1829L17.2912 21.4709C16.9029 21.0808 16.9029 20.4502 17.2912 20.0601L17.6317 19.7179C18.0227 19.3251 18.6585 19.3251 19.0494 19.7179L40.6565 41.4299C41.0447 41.82 41.0447 42.4505 40.6565 42.8407L40.3159 43.1829Z" fill="#1D1D1D"/>
<defs>
<filter id="filter0_d_52_7872" x="0" y="0" width="60" height="60" filterUnits="userSpaceOnUse" color-interpolation-filters="sRGB">
<feFlood flood-opacity="0" result="BackgroundImageFix"/>
<feColorMatrix in="SourceAlpha" type="matrix" values="0 0 0 0 0 0 0 0 0 0 0 0 0 0 0 0 0 0 127 0" result="hardAlpha"/>
<feOffset dy="1"/>
<feGaussianBlur stdDeviation="2"/>
<feComposite in2="hardAlpha" operator="out"/>
<feColorMatrix type="matrix" values="0 0 0 0 0 0 0 0 0 0 0 0 0 0 0 0 0 0 0.12 0"/>
<feBlend mode="normal" in2="BackgroundImageFix" result="effect1_dropShadow_52_7872"/>
<feBlend mode="normal" in="SourceGraphic" in2="effect1_dropShadow_52_7872" result="shape"/>
</filter>
</defs>
</svg>
