<svg width="60" height="60" viewBox="0 0 60 60" fill="none" xmlns="http://www.w3.org/2000/svg">
<g filter="url(#filter0_d_50_7411)">
<circle cx="30" cy="29" r="26" fill="#EB0000"/>
</g>
<path d="M19.8827 23.4658L19.8669 23.4686C18.5553 23.7596 17.3823 24.4895 16.5418 25.5375C15.7012 26.5855 15.2434 27.8889 15.2439 29.2324L15.244 30.3991C15.2439 30.6576 15.2948 30.9135 15.3936 31.1524C15.4925 31.3912 15.6375 31.6082 15.8203 31.7909C16.0031 31.9737 16.22 32.1187 16.4589 32.2176C16.6977 32.3165 16.9536 32.3673 17.2121 32.3673L22.1312 32.3657C22.3897 32.3658 22.6457 32.3149 22.8845 32.2161C23.1233 32.1172 23.3403 31.9722 23.523 31.7895C23.7058 31.6067 23.8507 31.3898 23.9496 31.151C24.0484 30.9121 24.0993 30.6562 24.0992 30.3977C24.0992 29.876 24.3065 29.3758 24.6753 29.0069C25.0442 28.638 25.5445 28.4308 26.0662 28.4307L33.9355 28.4321C34.4572 28.4322 34.9575 28.6395 35.3264 29.0084C35.6953 29.3773 35.9026 29.8776 35.9027 30.3993C35.9026 30.6577 35.9535 30.9137 36.0524 31.1525C36.1513 31.3913 36.2963 31.6083 36.479 31.7911C36.6618 31.9739 36.8788 32.1188 37.1176 32.2177C37.3564 32.3166 37.6124 32.3675 37.8708 32.3674L42.7891 32.3667C43.3108 32.3667 43.811 32.1594 44.1799 31.7906C44.5488 31.4217 44.756 30.9214 44.7561 30.3997L44.7569 29.2321C44.7571 27.8886 44.2989 26.5852 43.458 25.5373C42.6172 24.4894 41.444 23.7597 40.1324 23.4687L40.1176 23.465C33.4344 22.1722 26.5655 22.1724 19.8827 23.4658Z" fill="#F5F3E4"/>
<defs>
<filter id="filter0_d_50_7411" x="0" y="0" width="60" height="60" filterUnits="userSpaceOnUse" color-interpolation-filters="sRGB">
<feFlood flood-opacity="0" result="BackgroundImageFix"/>
<feColorMatrix in="SourceAlpha" type="matrix" values="0 0 0 0 0 0 0 0 0 0 0 0 0 0 0 0 0 0 127 0" result="hardAlpha"/>
<feOffset dy="1"/>
<feGaussianBlur stdDeviation="2"/>
<feComposite in2="hardAlpha" operator="out"/>
<feColorMatrix type="matrix" values="0 0 0 0 0 0 0 0 0 0 0 0 0 0 0 0 0 0 0.12 0"/>
<feBlend mode="normal" in2="BackgroundImageFix" result="effect1_dropShadow_50_7411"/>
<feBlend mode="normal" in="SourceGraphic" in2="effect1_dropShadow_50_7411" result="shape"/>
</filter>
</defs>
</svg>
